<svg xmlns="http://www.w3.org/2000/svg" width="195" height="33" viewBox="0 0 195 33" fill="none"><path d="M58.0316 32.1951C55.0926 32.1951 52.5633 31.6098 50.4439 30.439C48.3244 29.2683 46.6994 27.5958 45.569 25.4216C44.4386 23.2474 43.8734 20.6829 43.8734 17.7282C43.8734 14.7735 44.4528 12.223 45.6114 10.0767C46.7983 7.90244 48.4657 6.22996 50.6134 5.05923C52.7612 3.86063 55.2904 3.26132 58.2012 3.26132C60.8859 3.26132 63.2173 3.84669 65.1955 5.01742C67.202 6.18815 68.7421 7.76307 69.816 9.74216L63.8814 11.8746C63.2597 10.7317 62.4119 9.92334 61.338 9.44948C60.2642 8.94774 59.1479 8.69686 57.9892 8.69686C56.6893 8.69686 55.5024 9.05923 54.4285 9.78397C53.3546 10.4808 52.5068 11.5122 51.8851 12.878C51.2634 14.216 50.9525 15.8328 50.9525 17.7282C50.9525 20.6551 51.6308 22.899 52.9872 24.4599C54.372 25.993 56.0676 26.7596 58.074 26.7596C59.1479 26.7596 60.25 26.5366 61.3804 26.0906C62.5391 25.6446 63.4434 24.8223 64.0934 23.6237L69.9855 25.7561C68.8552 27.7352 67.2443 29.3101 65.1531 30.4808C63.0901 31.6237 60.7163 32.1951 58.0316 32.1951Z" fill="#FBF2EF"></path><path d="M79.1778 32.1951C77.8496 32.1951 76.6344 31.9443 75.5323 31.4425C74.4302 30.9408 73.5541 30.2439 72.9042 29.3519C72.2542 28.4321 71.9292 27.3449 71.9292 26.0906C71.9292 24.3902 72.5226 23.0383 73.7096 22.0348C74.9247 21.0314 76.5779 20.2787 78.6692 19.777C80.7604 19.2753 83.1625 18.9268 85.8754 18.7317C85.8754 17.2544 85.6352 16.2091 85.1548 15.5958C84.6744 14.9826 83.7418 14.676 82.3571 14.676C81.481 14.676 80.7039 14.885 80.0256 15.3031C79.3757 15.6934 78.9376 16.3066 78.7116 17.1429L73.2857 15.2195C73.9922 13.8258 75.1649 12.669 76.804 11.7491C78.4713 10.8293 80.5061 10.3693 82.9081 10.3693C85.9037 10.3693 88.2069 11.0244 89.8177 12.3345C91.4285 13.6446 92.2339 15.8746 92.2339 19.0244V23.5819C92.2339 24.4739 92.2622 25.4355 92.3187 26.4669C92.3752 27.4983 92.46 28.4739 92.573 29.3937C92.6861 30.3136 92.8132 31.0801 92.9545 31.6934H86.9776L86.2145 29.1847C85.4233 30.2718 84.42 31.0523 83.2049 31.5261C82.018 31.9721 80.6756 32.1951 79.1778 32.1951ZM81.5517 27.8467C82.8234 27.8467 83.8831 27.5122 84.7309 26.8432C85.5787 26.1742 86.0026 24.892 86.0026 22.9965V22.4948C83.7701 22.6899 81.9756 22.9965 80.6191 23.4146C79.2626 23.8049 78.5844 24.5436 78.5844 25.6307C78.5844 26.2997 78.867 26.8432 79.4322 27.2613C79.9974 27.6516 80.7039 27.8467 81.5517 27.8467Z" fill="#F75A22"></path><path d="M109.306 32.1951C108.175 32.1951 106.988 31.9303 105.745 31.4007C104.53 30.8711 103.583 30.0348 102.905 28.892L102.099 31.6934H96.4616V3.76307H102.905V13.7979C103.583 12.6551 104.53 11.8049 105.745 11.2474C106.988 10.662 108.175 10.3693 109.306 10.3693C111.114 10.3693 112.711 10.8014 114.096 11.6655C115.509 12.5296 116.611 13.77 117.402 15.3868C118.193 16.9756 118.589 18.899 118.589 21.1568C118.589 23.4146 118.193 25.3798 117.402 27.0523C116.611 28.6969 115.509 29.9652 114.096 30.8571C112.711 31.7491 111.114 32.1951 109.306 32.1951ZM107.271 27.2613C108.514 27.2613 109.588 26.7317 110.493 25.6725C111.425 24.5854 111.892 23.0801 111.892 21.1568C111.892 19.2613 111.425 17.8118 110.493 16.8084C109.588 15.8049 108.514 15.3031 107.271 15.3031C105.999 15.3031 104.897 15.777 103.965 16.7247C103.06 17.6446 102.608 19.1638 102.608 21.2822C102.608 23.4286 103.06 24.9617 103.965 25.8815C104.897 26.8014 105.999 27.2613 107.271 27.2613Z" fill="#F75A22"></path><path d="M127.86 7.52613C126.814 7.52613 125.91 7.16376 125.147 6.43902C124.412 5.68641 124.045 4.79442 124.045 3.76307C124.045 2.70383 124.412 1.81185 125.147 1.08711C125.91 0.362369 126.814 0 127.86 0C128.934 0 129.838 0.362369 130.573 1.08711C131.308 1.81185 131.675 2.70383 131.675 3.76307C131.675 4.79442 131.308 5.68641 130.573 6.43902C129.838 7.16376 128.934 7.52613 127.86 7.52613ZM124.596 31.6934V15.8049H120.611V10.9547H131.081V31.6934H124.596Z" fill="#F75A22"></path><path d="M132.965 31.6934L140.765 20.8641L133.601 10.9547H140.637L144.283 16.0139L147.886 10.9547H154.923L147.759 20.8641L155.559 31.6934H148.522L144.283 25.7143L140.002 31.6934H132.965Z" fill="#FBF2EF"></path><path d="M167.733 32.1951C165.783 32.1951 163.96 31.8049 162.265 31.0244C160.569 30.2439 159.199 29.0453 158.153 27.4286C157.107 25.784 156.585 23.7213 156.585 21.2404C156.585 18.7317 157.107 16.6829 158.153 15.0941C159.199 13.4774 160.569 12.2927 162.265 11.5401C163.96 10.7596 165.783 10.3693 167.733 10.3693C169.655 10.3693 171.463 10.7596 173.159 11.5401C174.855 12.2927 176.225 13.4774 177.271 15.0941C178.316 16.6829 178.839 18.7317 178.839 21.2404C178.839 23.7213 178.316 25.784 177.271 27.4286C176.225 29.0453 174.855 30.2439 173.159 31.0244C171.463 31.8049 169.655 32.1951 167.733 32.1951ZM167.733 27.2613C169.033 27.2613 170.107 26.8014 170.955 25.8815C171.831 24.9617 172.269 23.4146 172.269 21.2404C172.269 19.0383 171.817 17.5052 170.912 16.6411C170.036 15.7491 168.977 15.3031 167.733 15.3031C166.461 15.3031 165.373 15.7491 164.469 16.6411C163.593 17.5052 163.155 19.0383 163.155 21.2404C163.155 23.4146 163.593 24.9617 164.469 25.8815C165.345 26.8014 166.433 27.2613 167.733 27.2613Z" fill="#F75A22"></path><path d="M181.986 31.6934V10.9547H187.073L188.218 14.7596C188.868 13.0871 189.758 11.9164 190.888 11.2474C192.019 10.5784 193.389 10.2857 195 10.3693V16.7247C194.661 16.669 194.364 16.6411 194.11 16.6411C193.855 16.6132 193.573 16.5993 193.262 16.5993C191.708 16.5993 190.507 16.9617 189.659 17.6864C188.839 18.4112 188.43 19.5958 188.43 21.2404V31.6934H181.986Z" fill="#F75A22"></path><path fill-rule="evenodd" clip-rule="evenodd" d="M5.46431 9.64416H23.6787V27.6102H5.46431V9.64416ZM29.143 4.25436V33H0V4.25436H29.143Z" fill="#FBF2EF"></path><path d="M0 4.25436H29.143L19.1251 14.1357H10.0179V23.1187L0 33V4.25436Z" fill="#F75A22"></path><path d="M10.0179 23.1187H19.1251V14.1357L10.0179 23.1187Z" fill="#FBF2EF"></path></svg>