<svg xmlns="http://www.w3.org/2000/svg" width="147" height="25" viewBox="0 0 147 25" fill="none"><path d="M43.7469 24.3902C41.5313 24.3902 39.6247 23.9468 38.0269 23.0599C36.4291 22.1729 35.2042 20.9059 34.352 19.2588C33.4999 17.6117 33.0738 15.6689 33.0738 13.4305C33.0738 11.1921 33.5105 9.25985 34.384 7.63383C35.2787 5.9867 36.5357 4.71967 38.1547 3.83275C39.7738 2.92472 41.6805 2.4707 43.8747 2.4707C45.8986 2.4707 47.6561 2.91416 49.1474 3.80108C50.6599 4.68799 51.821 5.88111 52.6305 7.38042L48.1568 8.99588C47.6881 8.13008 47.049 7.51768 46.2394 7.1587C45.4299 6.77859 44.5884 6.58853 43.715 6.58853C42.735 6.58853 41.8402 6.86306 41.0307 7.4121C40.2212 7.94003 39.5821 8.72136 39.1134 9.7561C38.6447 10.7697 38.4104 11.9945 38.4104 13.4305C38.4104 15.6478 38.9217 17.3477 39.9442 18.5303C40.9881 19.6917 42.2663 20.2724 43.7789 20.2724C44.5884 20.2724 45.4192 20.1035 46.2714 19.7656C47.1448 19.4277 47.8266 18.8048 48.3165 17.8967L52.7583 19.5122C51.9062 21.0115 50.6919 22.2046 49.1154 23.0915C47.5603 23.9573 45.7708 24.3902 43.7469 24.3902Z" fill="#2D2624"></path><path d="M59.6879 24.3902C58.6866 24.3902 57.7706 24.2002 56.9397 23.8201C56.1089 23.44 55.4485 22.912 54.9585 22.2363C54.4685 21.5394 54.2235 20.7159 54.2235 19.7656C54.2235 18.4775 54.6709 17.4533 55.5657 16.6931C56.4817 15.9328 57.728 15.3627 59.3044 14.9826C60.8809 14.6025 62.6917 14.3385 64.7369 14.1907C64.7369 13.0715 64.5558 12.2796 64.1936 11.815C63.8315 11.3504 63.1284 11.1181 62.0846 11.1181C61.4242 11.1181 60.8383 11.2765 60.327 11.5933C59.837 11.8889 59.5068 12.3535 59.3364 12.987L55.2461 11.5299C55.7787 10.4741 56.6628 9.59772 57.8984 8.90085C59.1553 8.20399 60.6892 7.85556 62.5 7.85556C64.7582 7.85556 66.4944 8.35181 67.7087 9.34431C68.923 10.3368 69.5302 12.0262 69.5302 14.4124V17.8651C69.5302 18.5408 69.5515 19.2693 69.5941 20.0507C69.6367 20.832 69.7006 21.5711 69.7858 22.268C69.871 22.9648 69.9669 23.5456 70.0734 24.0101H65.5677L64.9925 22.1096C64.396 22.9332 63.6397 23.5244 62.7237 23.8834C61.8289 24.2213 60.817 24.3902 59.6879 24.3902ZM61.4774 21.096C62.4361 21.096 63.235 20.8426 63.8741 20.3358C64.5132 19.829 64.8327 18.8576 64.8327 17.4216V17.0415C63.1497 17.1893 61.797 17.4216 60.7744 17.7384C59.7518 18.034 59.2405 18.5936 59.2405 19.4172C59.2405 19.924 59.4536 20.3358 59.8796 20.6525C60.3057 20.9482 60.8383 21.096 61.4774 21.096Z" fill="#F75A22"></path><path d="M82.3997 24.3902C81.5476 24.3902 80.6528 24.1896 79.7155 23.7884C78.7994 23.3872 78.0857 22.7537 77.5744 21.8879L76.9673 24.0101H72.7172V2.85081H77.5744V10.453C78.0857 9.58716 78.7994 8.94309 79.7155 8.52075C80.6528 8.07729 81.5476 7.85556 82.3997 7.85556C83.7631 7.85556 84.9668 8.18287 86.0107 8.8375C87.0758 9.49213 87.9067 10.4318 88.5032 11.6566C89.0997 12.8603 89.3979 14.3174 89.3979 16.0279C89.3979 17.7384 89.0997 19.2271 88.5032 20.4941C87.9067 21.74 87.0758 22.7009 86.0107 23.3766C84.9668 24.0524 83.7631 24.3902 82.3997 24.3902ZM80.8658 20.6525C81.8032 20.6525 82.6127 20.2513 83.2945 19.4488C83.9975 18.6253 84.349 17.485 84.349 16.0279C84.349 14.5919 83.9975 13.4938 83.2945 12.7336C82.6127 11.9734 81.8032 11.5933 80.8658 11.5933C79.9072 11.5933 79.0763 11.9523 78.3733 12.6703C77.6916 13.3671 77.3507 14.518 77.3507 16.1229C77.3507 17.7489 77.6916 18.9104 78.3733 19.6072C79.0763 20.3041 79.9072 20.6525 80.8658 20.6525Z" fill="#F75A22"></path><path d="M96.3867 5.70162C95.5984 5.70162 94.9167 5.42709 94.3415 4.87805C93.7876 4.30789 93.5107 3.63214 93.5107 2.85081C93.5107 2.04836 93.7876 1.37261 94.3415 0.823565C94.9167 0.274522 95.5984 0 96.3867 0C97.1962 0 97.8779 0.274522 98.4318 0.823565C98.9857 1.37261 99.2627 2.04836 99.2627 2.85081C99.2627 3.63214 98.9857 4.30789 98.4318 4.87805C97.8779 5.42709 97.1962 5.70162 96.3867 5.70162ZM93.9261 24.0101V11.9734H90.9223V8.29902H98.8153V24.0101H93.9261Z" fill="#F75A22"></path><path d="M100.235 24.0101L106.115 15.8061L100.714 8.29902H106.019L108.767 12.1318L111.483 8.29902H116.788L111.387 15.8061L117.267 24.0101H111.963L108.767 19.4805L105.54 24.0101H100.235Z" fill="#2D2624"></path><path d="M126.445 24.3902C124.975 24.3902 123.601 24.0946 122.323 23.5033C121.044 22.912 120.011 22.004 119.223 20.7792C118.435 19.5333 118.041 17.9706 118.041 16.0912C118.041 14.1907 118.435 12.6386 119.223 11.4349C120.011 10.2101 121.044 9.31264 122.323 8.74248C123.601 8.1512 124.975 7.85556 126.445 7.85556C127.894 7.85556 129.257 8.1512 130.535 8.74248C131.813 9.31264 132.847 10.2101 133.635 11.4349C134.423 12.6386 134.817 14.1907 134.817 16.0912C134.817 17.9706 134.423 19.5333 133.635 20.7792C132.847 22.004 131.813 22.912 130.535 23.5033C129.257 24.0946 127.894 24.3902 126.445 24.3902ZM126.445 20.6525C127.425 20.6525 128.234 20.3041 128.874 19.6072C129.534 18.9104 129.864 17.7384 129.864 16.0912C129.864 14.423 129.523 13.2615 128.842 12.6069C128.181 11.9312 127.382 11.5933 126.445 11.5933C125.486 11.5933 124.666 11.9312 123.984 12.6069C123.324 13.2615 122.994 14.423 122.994 16.0912C122.994 17.7384 123.324 18.9104 123.984 19.6072C124.645 20.3041 125.465 20.6525 126.445 20.6525Z" fill="#F75A22"></path><path d="M137.19 24.0101V8.29902H141.024L141.887 11.1815C142.377 9.91447 143.048 9.02756 143.9 8.52075C144.752 8.01394 145.786 7.79221 147 7.85556V12.6703C146.744 12.628 146.521 12.6069 146.329 12.6069C146.137 12.5858 145.924 12.5752 145.69 12.5752C144.518 12.5752 143.613 12.8498 142.974 13.3988C142.356 13.9478 142.047 14.8453 142.047 16.0912V24.0101H137.19Z" fill="#F75A22"></path><path fill-rule="evenodd" clip-rule="evenodd" d="M4.11925 7.30618H17.8501V20.9168H4.11925V7.30618ZM21.9693 3.223V25H0V3.223H21.9693Z" fill="#2D2624"></path><path d="M0 3.223H21.9693L14.4174 10.7088H7.55196V17.5142L0 25V3.223Z" fill="#F75A22"></path><path d="M7.55196 17.5142H14.4174V10.7088L7.55196 17.5142Z" fill="#2D2624"></path></svg>