<svg xmlns="http://www.w3.org/2000/svg" xmlns:xlink="http://www.w3.org/1999/xlink" width="500" viewBox="0 0 375 374.999991" height="500" preserveAspectRatio="xMidYMid meet"><defs><clipPath id="60dad7661d"><path d="M 3.285156 51.042969 L 371.535156 51.042969 L 371.535156 174 L 3.285156 174 Z M 3.285156 51.042969 " clip-rule="nonzero"></path></clipPath><clipPath id="b68c01ed8c"><path d="M 44 132 L 352 132 L 352 337.542969 L 44 337.542969 Z M 44 132 " clip-rule="nonzero"></path></clipPath><clipPath id="cae4f158db"><path d="M 3.285156 61 L 116 61 L 116 337.542969 L 3.285156 337.542969 Z M 3.285156 61 " clip-rule="nonzero"></path></clipPath></defs><g clip-path="url(#60dad7661d)"><path fill="#000000" d="M 4.675781 56.234375 C 6.488281 53.027344 9.890625 51.042969 13.574219 51.042969 L 299.890625 51.042969 C 303.480469 51.042969 306.808594 52.929688 308.65625 56.011719 L 370.011719 158.332031 C 371.90625 161.492188 371.957031 165.429688 370.140625 168.636719 C 368.324219 171.847656 364.925781 173.828125 361.242188 173.828125 L 74.925781 173.828125 C 71.335938 173.828125 68.007812 171.945312 66.160156 168.859375 L 4.804688 66.539062 C 2.910156 63.378906 2.859375 59.441406 4.675781 56.234375 Z M 31.632812 71.507812 L 80.714844 153.363281 L 343.183594 153.363281 L 294.101562 71.507812 Z M 31.632812 71.507812 " fill-opacity="1" fill-rule="evenodd"></path></g><g clip-path="url(#b68c01ed8c)"><path fill="#000000" d="M 44.25 327.3125 L 44.25 132.898438 L 64.703125 132.898438 L 64.703125 317.078125 L 330.566406 317.078125 L 330.566406 163.597656 L 351.019531 163.597656 L 351.019531 327.3125 C 351.019531 332.960938 346.4375 337.542969 340.792969 337.542969 L 54.476562 337.542969 C 48.828125 337.542969 44.25 332.960938 44.25 327.3125 Z M 44.25 327.3125 " fill-opacity="1" fill-rule="evenodd"></path></g><path fill="#000000" d="M 44.25 102.203125 L 330.566406 102.203125 L 330.566406 122.667969 L 44.25 122.667969 Z M 44.25 102.203125 " fill-opacity="1" fill-rule="evenodd"></path><path fill="#000000" d="M 158.191406 168.863281 L 96.835938 66.539062 L 114.371094 56.011719 L 175.726562 158.332031 Z M 158.191406 168.863281 " fill-opacity="1" fill-rule="evenodd"></path><path fill="#000000" d="M 260.445312 168.863281 L 199.09375 66.539062 L 216.628906 56.011719 L 277.980469 158.332031 Z M 260.445312 168.863281 " fill-opacity="1" fill-rule="evenodd"></path><g clip-path="url(#cae4f158db)"><path fill="#000000" d="M 3.347656 327.3125 L 3.347656 61.273438 L 23.800781 61.273438 L 23.800781 317.078125 L 115.828125 317.078125 L 115.828125 337.542969 L 13.574219 337.542969 C 7.925781 337.542969 3.347656 332.960938 3.347656 327.3125 Z M 3.347656 327.3125 " fill-opacity="1" fill-rule="evenodd"></path></g><path fill="#000000" d="M 44.25 204.523438 C 44.25 198.875 48.828125 194.292969 54.476562 194.292969 L 340.792969 194.292969 C 346.4375 194.292969 351.019531 198.875 351.019531 204.523438 C 351.019531 210.175781 346.4375 214.757812 340.792969 214.757812 L 54.476562 214.757812 C 48.828125 214.757812 44.25 210.175781 44.25 204.523438 Z M 44.25 204.523438 " fill-opacity="1" fill-rule="evenodd"></path><path fill="#000000" d="M 44.25 245.453125 C 44.25 239.804688 48.828125 235.222656 54.476562 235.222656 L 340.792969 235.222656 C 346.4375 235.222656 351.019531 239.804688 351.019531 245.453125 C 351.019531 251.105469 346.4375 255.6875 340.792969 255.6875 L 54.476562 255.6875 C 48.828125 255.6875 44.25 251.105469 44.25 245.453125 Z M 44.25 245.453125 " fill-opacity="1" fill-rule="evenodd"></path><path fill="#000000" d="M 44.25 286.382812 C 44.25 280.730469 48.828125 276.148438 54.476562 276.148438 L 340.792969 276.148438 C 346.4375 276.148438 351.019531 280.730469 351.019531 286.382812 C 351.019531 292.03125 346.4375 296.613281 340.792969 296.613281 L 54.476562 296.613281 C 48.828125 296.613281 44.25 292.03125 44.25 286.382812 Z M 44.25 286.382812 " fill-opacity="1" fill-rule="evenodd"></path></svg>