<svg xmlns="http://www.w3.org/2000/svg" xmlns:xlink="http://www.w3.org/1999/xlink" width="500" viewBox="0 0 375 374.999991" height="500" preserveAspectRatio="xMidYMid meet"><defs><clipPath id="b1379fabea"><path d="M 242 12 L 367.054688 12 L 367.054688 208 L 242 208 Z M 242 12 " clip-rule="nonzero"></path></clipPath></defs><path fill="#000000" d="M 266.632812 250.808594 C 262.125 250.433594 253.699219 252.058594 250.117188 248.546875 C 250.117188 248.546875 189.847656 199.515625 189.847656 199.515625 C 182.144531 192.054688 164.4375 195.085938 154.839844 194.519531 C 163.316406 188.324219 161.65625 177.65625 161.722656 168.40625 C 161.722656 167.332031 160.855469 166.464844 159.78125 166.464844 L 153.734375 166.464844 C 153.929688 166.269531 154.132812 166.082031 154.328125 165.886719 C 159.953125 166.050781 166.316406 165.304688 170.605469 161.386719 C 171.878906 160.136719 172.410156 158.253906 174.132812 157.515625 C 175.78125 156.816406 177.703125 156.792969 179.441406 156.441406 C 185.285156 155.144531 191.757812 151.234375 193.632812 145.242188 C 194.6875 141.144531 191.96875 137.140625 188.285156 135.507812 C 180.375 132.601562 169.84375 137.34375 164.988281 143.835938 C 163.730469 145.550781 162.230469 146.507812 160.355469 147.472656 C 152.949219 150.308594 153.214844 156.21875 151.917969 162.816406 C 150.675781 164.023438 149.453125 165.242188 148.242188 166.472656 L 144.722656 166.472656 C 144.832031 164.574219 144.683594 162.59375 145.109375 160.75 C 150.003906 151.054688 158.71875 140.140625 152.242188 129.070312 C 150.121094 126.855469 151.878906 124.28125 152.289062 121.78125 C 154.542969 112.234375 145.816406 107.910156 140.300781 116.324219 C 136.445312 122.144531 134.867188 129.398438 135.226562 136.316406 C 135.371094 146.804688 142.753906 155.84375 140.84375 166.464844 L 138.777344 166.464844 C 136.871094 164.355469 134.710938 162.476562 132.605469 160.5625 C 130.734375 151.335938 127.515625 148.699219 120.328125 143.3125 C 111.820312 123.964844 90.285156 131.363281 95.492188 144.613281 C 97.039062 148.46875 99.664062 151.421875 103.652344 152.78125 C 105.378906 153.371094 106.898438 153.800781 108.050781 155.316406 C 115.8125 169.136719 123.738281 155.449219 133.289062 166.464844 L 127.546875 166.464844 C 126.476562 166.464844 125.605469 167.332031 125.605469 168.40625 C 125.675781 177.65625 124.019531 188.324219 132.488281 194.519531 L 59.527344 194.519531 C 68.007812 188.324219 66.34375 177.65625 66.414062 168.40625 C 66.414062 167.636719 65.964844 166.976562 65.308594 166.65625 C 73.144531 159.195312 78.21875 148.902344 78.761719 138.058594 C 78.179688 133.371094 69.996094 138.867188 67.703125 139.847656 C 63.492188 142.226562 59.683594 145.335938 56.566406 149.035156 C 56.421875 144.789062 52.394531 127.035156 48.136719 126.203125 C 47.507812 126.164062 46.863281 126.421875 46.441406 127.121094 C 42.464844 133.644531 39.457031 140.910156 38.59375 148.550781 C 34.210938 143.476562 28.476562 139.660156 22.265625 137.203125 C 20.527344 136.449219 17.007812 135.011719 16.796875 138.058594 C 17.363281 149.097656 22.585938 159.746094 30.832031 167.085938 C 29.789062 167.28125 30.496094 179.5625 30.300781 180.339844 C 30.300781 186.085938 33 191.207031 37.1875 194.519531 C 30.527344 193.84375 24.402344 198.816406 24.449219 205.660156 C 24.449219 205.660156 24.449219 317.34375 24.449219 317.34375 C 17.800781 324.394531 19.617188 334.203125 20.835938 338.410156 C 16.152344 339.996094 12.878906 342.648438 11.109375 346.300781 C 7.804688 353.59375 10.726562 363.015625 13.066406 362.554688 C 13.066406 362.554688 259.09375 362.554688 259.09375 362.554688 C 260.167969 362.554688 261.035156 361.683594 261.035156 360.613281 C 261.160156 338.519531 260.953125 290.035156 261.035156 267.597656 L 276.175781 267.597656 C 277.246094 267.597656 278.117188 266.730469 278.117188 265.65625 C 279.019531 258.070312 274.816406 250.902344 266.632812 250.808594 Z M 157.582031 154.5 C 159.097656 151.65625 162.757812 150.929688 165.214844 149.136719 C 168.050781 146.851562 169.597656 143.296875 173.03125 141.703125 C 176.210938 139.910156 180.164062 138.332031 183.863281 138.4375 C 189.464844 138.703125 192.273438 143.820312 187.515625 147.804688 C 183.816406 152.003906 178.285156 152.617188 173.171875 153.746094 C 166.441406 157.050781 169.9375 160.882812 158.585938 161.875 C 164.871094 156.109375 172.042969 151.226562 179.9375 147.953125 C 180.902344 147.550781 181.601562 146.671875 181.300781 145.558594 C 181.050781 144.648438 179.886719 143.796875 178.90625 144.199219 C 170.667969 147.621094 163.175781 152.523438 156.554688 158.488281 C 156.71875 157.128906 156.9375 155.703125 157.582031 154.492188 Z M 139.5625 140.390625 C 135.871094 123.164062 150.371094 106.605469 148.453125 121.257812 C 143.765625 133.9375 157.660156 131.15625 145.832031 151.28125 C 145.894531 148.28125 147.921875 130.695312 143.019531 131.925781 C 141.945312 132.21875 141.457031 133.285156 141.660156 134.320312 C 142.671875 139.339844 142.578125 144.402344 142.1875 149.46875 C 141.148438 146.492188 140.113281 143.515625 139.5625 140.398438 Z M 121.859375 157.78125 C 110.589844 160.359375 114.273438 151.359375 105.144531 149.199219 C 95.375 145.574219 96.597656 132.886719 108.316406 135.890625 C 113.707031 137.335938 114.875 143.164062 118.261719 146.78125 C 121.578125 149.460938 125.960938 151.753906 127.277344 156.101562 C 123.257812 152.921875 119.046875 149.984375 114.679688 147.308594 C 112.542969 146.003906 110.582031 149.359375 112.722656 150.667969 C 116.304688 152.859375 119.761719 155.238281 123.09375 157.78125 C 122.683594 157.773438 122.277344 157.773438 121.867188 157.789062 Z M 129.492188 180.339844 L 129.492188 170.351562 C 135.550781 170.351562 152.019531 170.351562 157.839844 170.351562 L 157.839844 180.339844 C 157.347656 199.035156 129.980469 199.027344 129.492188 180.339844 Z M 73.664062 141.222656 C 73.8125 141.160156 73.804688 141.167969 73.664062 141.222656 Z M 62.046875 148.824219 C 65.628906 145.390625 69.910156 142.714844 74.597656 140.847656 C 73.253906 150.921875 67.601562 160.554688 59.335938 166.464844 L 52.394531 166.464844 C 53.847656 159.675781 57.082031 153.597656 62.054688 148.816406 Z M 52.839844 154.328125 C 50.675781 158.082031 49.214844 162.210938 48.433594 166.472656 L 47.101562 166.472656 C 46.234375 161.898438 44.617188 157.476562 42.183594 153.496094 C 42.167969 145.949219 44.507812 138.710938 48.050781 132.117188 C 51.222656 139.078125 53 146.679688 52.839844 154.335938 Z M 20.9375 140.855469 C 32.011719 145.078125 40.949219 154.703125 43.148438 166.472656 L 36.199219 166.472656 C 27.933594 160.5625 22.28125 150.9375 20.9375 140.855469 Z M 34.171875 180.347656 L 34.171875 170.359375 C 36.683594 170.359375 60.789062 170.359375 62.519531 170.359375 L 62.519531 180.347656 C 62.03125 199.042969 34.660156 199.035156 34.171875 180.347656 Z M 181.128906 212.65625 L 204.636719 231.902344 L 204.636719 292.792969 L 179.402344 292.792969 L 179.402344 211.503906 C 180.007812 211.839844 180.59375 212.21875 181.128906 212.664062 Z M 249.324219 277.519531 L 256.894531 277.519531 C 256.980469 277.519531 257.058594 277.503906 257.144531 277.496094 L 257.144531 320.523438 L 249.324219 320.523438 Z M 245.441406 320.523438 L 220.207031 320.523438 C 220.207031 304.253906 220.207031 261.457031 220.207031 244.660156 C 222.320312 246.214844 243.621094 264.296875 245.433594 264.832031 L 245.433594 320.523438 Z M 208.511719 244.960938 C 209.601562 245.683594 215.148438 250.363281 216.332031 251.089844 L 216.332031 292.785156 L 208.511719 292.785156 Z M 167.691406 218.199219 L 175.511719 218.199219 L 175.511719 265.050781 L 167.691406 265.050781 Z M 163.808594 265.050781 L 132.933594 265.050781 L 132.933594 210.113281 L 163.808594 210.113281 Z M 121.238281 218.199219 L 129.054688 218.199219 L 129.054688 265.050781 L 121.238281 265.050781 Z M 117.351562 265.050781 L 86.476562 265.050781 L 86.476562 210.113281 L 117.351562 210.113281 Z M 74.78125 218.199219 L 82.601562 218.199219 L 82.601562 265.050781 L 74.78125 265.050781 Z M 70.898438 265.050781 L 40.03125 265.050781 L 40.03125 210.113281 L 70.90625 210.113281 L 70.90625 265.050781 Z M 28.320312 218.199219 L 36.136719 218.199219 L 36.136719 265.050781 L 28.320312 265.050781 Z M 257.136719 358.675781 L 169.527344 358.675781 C 168.4375 358.265625 163.535156 356.117188 159.175781 349.542969 C 154.550781 342.570312 146.261719 342.546875 140.570312 343.976562 C 141.363281 332.285156 127.585938 324.828125 117.820312 330.972656 C 120.539062 314.117188 99.921875 305.222656 87.886719 313.773438 C 81.289062 289.769531 47.179688 295.761719 41.027344 312.546875 C 38.414062 311.761719 33.535156 311.054688 28.320312 314.210938 L 28.320312 268.9375 L 175.519531 268.9375 L 175.519531 294.730469 C 175.519531 295.800781 176.386719 296.671875 177.460938 296.671875 C 184.539062 296.671875 209.71875 296.671875 216.332031 296.671875 L 216.332031 322.457031 C 216.332031 323.53125 217.199219 324.402344 218.273438 324.402344 L 257.144531 324.402344 L 257.144531 358.667969 Z M 274.214844 263.71875 C 268.257812 263.238281 253.515625 265.035156 248.253906 261.910156 C 242.261719 259.617188 184.222656 207.554688 178.011719 206.769531 C 176.714844 206.421875 175.371094 206.234375 174.027344 206.226562 C 174.027344 206.226562 28.320312 206.226562 28.320312 206.226562 C 28.046875 202.035156 31.34375 198.390625 35.570312 198.40625 C 35.570312 198.40625 175.773438 198.40625 175.773438 198.40625 C 179.984375 198.40625 184.113281 199.875 187.382812 202.535156 L 247.65625 251.5625 C 255.675781 259.398438 274.394531 247.878906 274.214844 263.71875 Z M 274.214844 263.71875 " fill-opacity="1" fill-rule="nonzero"></path><g clip-path="url(#b1379fabea)"><path fill="#000000" d="M 365.089844 12.039062 L 244.375 12.039062 C 243.304688 12.039062 242.433594 12.910156 242.433594 13.980469 C 242.285156 19.640625 241.835938 25.527344 249.449219 25.230469 L 249.449219 205.765625 C 249.449219 206.839844 250.320312 207.710938 251.394531 207.710938 L 358.074219 207.710938 C 359.144531 207.710938 360.015625 206.839844 360.015625 205.765625 L 360.015625 25.230469 C 363.589844 25.679688 367.0625 23.21875 367.03125 19.453125 C 367.03125 19.453125 367.03125 13.980469 367.03125 13.980469 C 367.03125 12.910156 366.160156 12.039062 365.089844 12.039062 Z M 275.1875 180.339844 L 275.1875 170.351562 L 299.472656 170.351562 C 299.496094 178.21875 300.582031 189.613281 292.726562 194.097656 C 283.992188 196.390625 275.0625 189.378906 275.1875 180.339844 Z M 272.476562 141.617188 C 277.324219 144.339844 281.527344 148.179688 285.164062 152.417969 C 284.605469 153.242188 284.140625 154.117188 283.773438 155.050781 C 282.757812 153.863281 281.699219 152.695312 280.621094 151.570312 C 278.855469 149.78125 276.089844 152.546875 277.867188 154.320312 C 279.601562 156.125 281.234375 158.011719 282.78125 159.964844 C 282.75 160.984375 282.828125 162.15625 283.058594 163.308594 C 274.261719 159.863281 271.03125 150.472656 272.476562 141.625 Z M 295.222656 164.417969 C 297.257812 158.652344 299.96875 153.140625 303.304688 147.992188 C 304.671875 145.886719 301.304688 143.933594 299.945312 146.035156 C 296.449219 151.421875 293.628906 157.226562 291.5 163.285156 C 288.265625 151.328125 297.824219 140.546875 307.949219 135.617188 C 307.808594 146.296875 305.554688 158.992188 295.214844 164.417969 Z M 307.421875 180.339844 L 307.421875 168.40625 C 307.421875 167.332031 306.550781 166.464844 305.480469 166.464844 L 299.183594 166.464844 C 310.234375 159.234375 311.96875 144.703125 311.859375 132.523438 C 311.851562 130.921875 310.242188 130.277344 308.9375 130.84375 C 300.203125 134.621094 291.839844 141.417969 288.523438 150.402344 C 286.625 147.78125 271.324219 132.539062 269.1875 138.191406 C 266.414062 148.941406 269.785156 161.898438 280.757812 166.457031 L 273.246094 166.457031 C 272.171875 166.457031 271.300781 167.328125 271.300781 168.398438 C 271.371094 177.648438 269.71875 188.316406 278.1875 194.511719 L 262.628906 194.511719 L 262.628906 121.011719 L 346.828125 121.011719 L 346.828125 194.511719 L 300.535156 194.511719 C 304.726562 191.199219 307.421875 186.078125 307.421875 180.332031 Z M 346.828125 107.839844 L 321.082031 107.839844 L 321.082031 82.894531 L 346.828125 82.894531 Z M 317.195312 107.839844 L 292.261719 107.839844 L 292.261719 82.894531 L 317.195312 82.894531 Z M 288.375 107.839844 L 262.628906 107.839844 L 262.628906 82.894531 L 288.375 82.894531 Z M 262.628906 79.007812 L 262.628906 54.0625 L 288.375 54.0625 L 288.375 79.007812 Z M 262.628906 117.117188 L 262.628906 111.730469 L 346.828125 111.730469 L 346.828125 117.117188 Z M 346.828125 79.007812 L 321.082031 79.007812 L 321.082031 54.0625 L 346.828125 54.0625 Z M 317.195312 79.007812 L 292.261719 79.007812 L 292.261719 54.0625 L 317.195312 54.0625 Z M 292.261719 50.175781 L 292.261719 33.050781 L 317.195312 33.050781 L 317.195312 50.175781 Z M 288.375 33.050781 L 288.375 50.175781 L 262.628906 50.175781 L 262.628906 33.050781 Z M 346.828125 50.175781 L 321.082031 50.175781 L 321.082031 33.050781 L 346.828125 33.050781 Z M 253.328125 203.824219 L 253.328125 33.042969 L 258.746094 33.042969 L 258.746094 196.460938 C 258.746094 197.535156 259.613281 198.40625 260.6875 198.40625 L 348.769531 198.40625 C 349.84375 198.40625 350.714844 197.535156 350.714844 196.460938 L 350.714844 33.042969 L 356.128906 33.042969 L 356.128906 203.816406 L 253.335938 203.816406 Z M 363.148438 19.453125 C 363.148438 22.011719 359.679688 21.234375 358.078125 21.34375 C 345.328125 21.34375 264.144531 21.34375 251.386719 21.34375 C 245.96875 21.539062 246.21875 21.234375 246.3125 15.933594 L 363.140625 15.933594 L 363.140625 19.460938 Z M 363.148438 19.453125 " fill-opacity="1" fill-rule="nonzero"></path></g></svg>