<svg xmlns="http://www.w3.org/2000/svg" xmlns:xlink="http://www.w3.org/1999/xlink" width="500" viewBox="0 0 375 374.999991" height="500" preserveAspectRatio="xMidYMid meet"><defs><clipPath id="f6d6ed2e9b"><path d="M 26 260 L 188 260 L 188 334.011719 L 26 334.011719 Z M 26 260 " clip-rule="nonzero"></path></clipPath><clipPath id="5611078383"><path d="M 11 40.761719 L 364 40.761719 L 364 247 L 11 247 Z M 11 40.761719 " clip-rule="nonzero"></path></clipPath></defs><g clip-path="url(#f6d6ed2e9b)"><path fill="#000000" d="M 26.082031 312.019531 C 26.082031 324.144531 35.980469 334.011719 48.109375 334.011719 L 165.574219 334.011719 C 177.714844 334.011719 187.601562 324.144531 187.601562 312.019531 L 187.601562 260.691406 L 26.082031 260.691406 Z M 26.082031 312.019531 " fill-opacity="1" fill-rule="nonzero"></path></g><g clip-path="url(#5611078383)"><path fill="#000000" d="M 356.457031 84.726562 L 302.273438 84.726562 L 293.683594 67.554688 C 289.929688 60.0625 282.367188 55.398438 273.980469 55.398438 L 240.195312 55.398438 L 215.367188 47.140625 C 202.617188 42.890625 189.347656 40.730469 175.898438 40.730469 L 33.425781 40.730469 C 21.296875 40.730469 11.398438 50.601562 11.398438 62.734375 L 11.398438 121.386719 C 11.398438 133.511719 21.296875 143.382812 33.425781 143.382812 L 68.914062 143.382812 L 55.976562 227.289062 L 30.972656 246.03125 L 181.753906 246.03125 L 136.988281 226.867188 L 141.964844 194.515625 C 142.503906 194.632812 143.035156 194.707031 143.5625 194.707031 C 146.855469 194.707031 149.847656 192.492188 150.667969 189.148438 L 158.011719 159.820312 C 158.996094 155.890625 156.601562 151.917969 152.667969 150.9375 C 151.273438 150.582031 149.890625 150.773438 148.628906 151.199219 L 149.847656 143.382812 L 175.878906 143.382812 C 189.332031 143.382812 202.605469 141.222656 215.347656 136.972656 L 240.179688 128.71875 L 273.96875 128.71875 C 282.367188 128.71875 289.914062 124.054688 293.671875 116.5625 L 302.261719 99.390625 L 356.457031 99.390625 C 360.511719 99.390625 363.800781 96.109375 363.800781 92.058594 C 363.800781 88.011719 360.511719 84.726562 356.457031 84.726562 Z M 92.15625 114.050781 L 48.109375 114.050781 C 44.054688 114.050781 40.765625 110.769531 40.765625 106.722656 C 40.765625 102.675781 44.054688 99.390625 48.109375 99.390625 L 92.15625 99.390625 C 96.210938 99.390625 99.496094 102.675781 99.496094 106.722656 C 99.496094 110.769531 96.210938 114.050781 92.15625 114.050781 Z M 92.15625 84.726562 L 48.109375 84.726562 C 44.054688 84.726562 40.765625 81.445312 40.765625 77.394531 C 40.765625 73.34375 44.054688 70.0625 48.109375 70.0625 L 92.15625 70.0625 C 96.210938 70.0625 99.496094 73.34375 99.496094 77.394531 C 99.496094 81.445312 96.210938 84.726562 92.15625 84.726562 Z M 246.332031 106.722656 C 246.332031 110.769531 243.042969 114.058594 238.988281 114.058594 C 234.9375 114.058594 231.648438 110.769531 231.648438 106.722656 L 231.648438 77.394531 C 231.648438 73.34375 234.9375 70.0625 238.992188 70.0625 C 243.042969 70.0625 246.332031 73.34375 246.332031 77.394531 Z M 246.332031 106.722656 " fill-opacity="1" fill-rule="nonzero"></path></g></svg>