<svg xmlns="http://www.w3.org/2000/svg" xmlns:xlink="http://www.w3.org/1999/xlink" width="500" viewBox="0 0 375 374.999991" height="500" preserveAspectRatio="xMidYMid meet"><defs><clipPath id="0e935bc619"><path d="M 300 343 L 317 343 L 317 357.371094 L 300 357.371094 Z M 300 343 " clip-rule="nonzero"></path></clipPath><clipPath id="aa1275f8cb"><path d="M 20.167969 18 L 286 18 L 286 272 L 20.167969 272 Z M 20.167969 18 " clip-rule="nonzero"></path></clipPath></defs><path fill="#000000" d="M 293.804688 235.683594 L 289.304688 233.035156 C 286.921875 231.445312 283.480469 232.238281 282.160156 234.886719 C 280.570312 237.269531 281.363281 240.710938 284.011719 242.300781 L 288.511719 244.949219 C 289.304688 245.476562 290.363281 245.742188 291.15625 245.742188 C 293.007812 245.742188 294.597656 244.949219 295.65625 243.09375 C 296.980469 240.449219 296.183594 237.269531 293.804688 235.683594 Z M 293.804688 235.683594 " fill-opacity="1" fill-rule="nonzero"></path><path fill="#000000" d="M 268.925781 220.589844 L 264.429688 217.941406 C 262.046875 216.355469 258.605469 217.148438 257.285156 219.796875 C 255.960938 222.445312 256.488281 225.621094 259.136719 227.210938 L 263.632812 229.855469 C 264.429688 230.386719 265.488281 230.652344 266.28125 230.652344 C 268.132812 230.652344 269.722656 229.855469 270.78125 228.003906 C 272.101562 225.355469 271.574219 222.179688 268.925781 220.589844 Z M 268.925781 220.589844 " fill-opacity="1" fill-rule="nonzero"></path><path fill="#000000" d="M 318.679688 251.039062 L 314.179688 248.390625 C 311.796875 246.800781 308.359375 247.597656 307.035156 250.242188 C 305.445312 252.625 306.242188 256.066406 308.886719 257.65625 L 313.386719 260.304688 C 314.179688 260.832031 315.238281 261.097656 316.03125 261.097656 C 317.886719 261.097656 319.472656 260.304688 320.53125 258.449219 C 321.855469 255.804688 321.058594 252.363281 318.679688 251.039062 Z M 318.679688 251.039062 " fill-opacity="1" fill-rule="nonzero"></path><path fill="#000000" d="M 343.554688 266.128906 L 339.054688 263.480469 C 336.675781 261.894531 333.234375 262.6875 331.910156 265.335938 C 330.324219 267.71875 331.117188 271.160156 333.761719 272.746094 L 338.261719 275.394531 C 339.054688 275.925781 340.113281 276.191406 340.910156 276.191406 C 342.761719 276.191406 344.347656 275.394531 345.40625 273.542969 C 346.730469 270.894531 345.9375 267.71875 343.554688 266.128906 Z M 343.554688 266.128906 " fill-opacity="1" fill-rule="nonzero"></path><path fill="#000000" d="M 242.992188 339.203125 L 238.492188 336.554688 C 235.847656 334.964844 232.671875 336.023438 231.347656 338.40625 C 229.761719 341.054688 230.820312 344.230469 233.203125 345.554688 L 237.699219 348.203125 C 238.492188 348.734375 239.550781 348.996094 240.347656 348.996094 C 242.199219 348.996094 244.050781 347.9375 244.84375 346.351562 C 246.433594 343.96875 245.640625 340.789062 242.992188 339.203125 Z M 242.992188 339.203125 " fill-opacity="1" fill-rule="nonzero"></path><path fill="#000000" d="M 142.695312 279.894531 L 138.195312 277.25 C 135.550781 275.660156 132.375 276.71875 131.050781 279.101562 C 129.730469 281.484375 130.523438 284.925781 132.902344 286.25 L 137.402344 288.898438 C 138.195312 289.425781 139.253906 289.691406 140.050781 289.691406 C 141.902344 289.691406 143.753906 288.632812 144.546875 287.042969 C 146.136719 284.660156 145.34375 281.484375 142.695312 279.894531 Z M 142.695312 279.894531 " fill-opacity="1" fill-rule="nonzero"></path><path fill="#000000" d="M 167.835938 294.722656 L 163.335938 292.074219 C 160.691406 290.488281 157.515625 291.546875 156.191406 293.929688 C 154.605469 296.574219 155.664062 299.753906 158.042969 301.078125 L 162.542969 303.722656 C 163.335938 304.253906 164.394531 304.519531 165.191406 304.519531 C 167.042969 304.519531 168.894531 303.460938 169.6875 301.871094 C 171.277344 299.488281 170.21875 296.3125 167.835938 294.722656 Z M 167.835938 294.722656 " fill-opacity="1" fill-rule="nonzero"></path><path fill="#000000" d="M 217.851562 324.375 L 213.355469 321.726562 C 210.707031 320.140625 207.53125 321.199219 206.207031 323.582031 C 204.621094 326.230469 205.679688 329.40625 208.0625 330.730469 L 212.558594 333.378906 C 213.355469 333.90625 214.414062 334.171875 215.207031 334.171875 C 217.058594 334.171875 218.910156 333.113281 219.703125 331.523438 C 221.292969 329.140625 220.5 325.964844 217.851562 324.375 Z M 217.851562 324.375 " fill-opacity="1" fill-rule="nonzero"></path><path fill="#000000" d="M 192.976562 309.550781 L 188.476562 306.902344 C 185.832031 305.3125 182.65625 306.371094 181.332031 308.753906 C 179.746094 311.402344 180.804688 314.578125 183.183594 315.902344 L 187.683594 318.550781 C 188.476562 319.082031 189.535156 319.34375 190.332031 319.34375 C 192.183594 319.34375 194.035156 318.285156 194.828125 316.699219 C 196.152344 314.316406 195.359375 311.136719 192.976562 309.550781 Z M 192.976562 309.550781 " fill-opacity="1" fill-rule="nonzero"></path><path fill="#000000" d="M 211.765625 295.78125 C 213.617188 295.78125 215.207031 294.988281 216.265625 293.132812 C 217.851562 290.75 217.058594 287.308594 214.414062 285.722656 L 209.914062 282.808594 C 207.53125 281.21875 204.089844 282.015625 202.503906 284.660156 C 200.914062 287.308594 201.710938 290.488281 204.355469 292.074219 L 208.855469 294.988281 C 209.914062 295.515625 210.972656 295.78125 211.765625 295.78125 Z M 211.765625 295.78125 " fill-opacity="1" fill-rule="nonzero"></path><path fill="#000000" d="M 236.640625 310.871094 C 238.492188 310.871094 240.082031 310.078125 241.140625 308.226562 C 242.726562 305.84375 241.933594 302.402344 239.289062 300.8125 L 234.789062 297.898438 C 232.40625 296.3125 228.96875 297.105469 227.378906 299.753906 C 225.792969 302.136719 226.585938 305.578125 229.230469 307.167969 L 233.730469 310.078125 C 234.789062 310.871094 235.582031 310.871094 236.640625 310.871094 Z M 236.640625 310.871094 " fill-opacity="1" fill-rule="nonzero"></path><path fill="#000000" d="M 162.277344 265.070312 C 164.132812 265.070312 165.71875 264.277344 166.777344 262.421875 C 168.367188 260.039062 167.570312 256.597656 164.925781 255.007812 L 164.394531 254.746094 L 154.074219 260.832031 C 154.339844 261.097656 154.605469 261.363281 154.867188 261.363281 L 159.367188 264.277344 C 160.425781 264.804688 161.21875 265.070312 162.277344 265.070312 Z M 162.277344 265.070312 " fill-opacity="1" fill-rule="nonzero"></path><path fill="#000000" d="M 187.15625 280.425781 C 189.007812 280.425781 190.59375 279.632812 191.652344 277.777344 C 193.242188 275.394531 192.449219 271.953125 189.800781 270.363281 L 185.300781 267.453125 C 182.921875 265.863281 179.480469 266.660156 177.890625 269.304688 C 176.304688 271.6875 177.097656 275.128906 179.746094 276.71875 L 184.242188 279.632812 C 185.039062 280.160156 186.097656 280.425781 187.15625 280.425781 Z M 187.15625 280.425781 " fill-opacity="1" fill-rule="nonzero"></path><path fill="#000000" d="M 264.164062 316.433594 L 259.664062 313.519531 C 257.285156 311.933594 253.84375 312.726562 252.253906 315.375 C 250.667969 317.757812 251.460938 321.199219 254.109375 322.785156 L 258.605469 325.699219 C 259.398438 326.230469 260.457031 326.492188 261.253906 326.492188 C 263.105469 326.492188 264.691406 325.699219 265.75 323.847656 C 267.339844 321.199219 266.546875 318.019531 264.164062 316.433594 Z M 264.164062 316.433594 " fill-opacity="1" fill-rule="nonzero"></path><g clip-path="url(#0e935bc619)"><path fill="#000000" d="M 313.652344 347.144531 L 309.152344 344.230469 C 306.769531 342.644531 303.328125 343.4375 301.742188 346.085938 C 300.15625 348.46875 300.949219 351.910156 303.59375 353.5 L 308.09375 356.410156 C 308.886719 356.941406 309.945312 357.207031 310.738281 357.207031 C 312.59375 357.207031 314.179688 356.410156 315.238281 354.558594 C 317.089844 351.910156 316.296875 348.734375 313.652344 347.144531 Z M 313.652344 347.144531 " fill-opacity="1" fill-rule="nonzero"></path></g><path fill="#000000" d="M 289.039062 331.789062 L 284.539062 328.875 C 282.160156 327.289062 278.71875 328.082031 277.132812 330.730469 C 275.542969 333.113281 276.335938 336.554688 278.984375 338.144531 L 283.480469 341.054688 C 284.277344 341.585938 285.335938 341.847656 286.128906 341.847656 C 287.980469 341.847656 289.570312 341.054688 290.628906 339.203125 C 292.214844 336.554688 291.421875 333.378906 289.039062 331.789062 Z M 289.039062 331.789062 " fill-opacity="1" fill-rule="nonzero"></path><path fill="#000000" d="M 243.523438 238.066406 L 239.023438 235.152344 C 236.640625 233.5625 233.203125 234.359375 231.613281 237.003906 C 230.027344 239.386719 230.820312 242.832031 233.203125 244.417969 L 237.699219 247.332031 C 238.492188 247.859375 239.550781 248.125 240.347656 248.125 C 242.199219 248.125 243.785156 247.332031 244.84375 245.476562 C 246.699219 242.832031 246.167969 239.652344 243.523438 238.066406 Z M 243.523438 238.066406 " fill-opacity="1" fill-rule="nonzero"></path><path fill="#000000" d="M 268.398438 253.421875 L 263.898438 250.773438 C 261.515625 249.183594 258.078125 249.980469 256.488281 252.625 C 254.902344 255.007812 255.695312 258.449219 258.078125 260.039062 L 262.574219 262.953125 C 263.371094 263.480469 264.429688 263.746094 265.222656 263.746094 C 267.074219 263.746094 268.664062 262.953125 269.722656 261.097656 C 271.574219 258.1875 270.78125 255.007812 268.398438 253.421875 Z M 268.398438 253.421875 " fill-opacity="1" fill-rule="nonzero"></path><path fill="#000000" d="M 219.175781 222.972656 L 208.855469 229.0625 L 213.355469 231.710938 C 214.148438 232.238281 215.207031 232.503906 216 232.503906 C 217.851562 232.503906 219.441406 231.710938 220.5 229.855469 C 222.085938 227.738281 221.292969 224.5625 219.175781 222.972656 Z M 219.175781 222.972656 " fill-opacity="1" fill-rule="nonzero"></path><path fill="#000000" d="M 342.496094 299.488281 L 337.996094 296.574219 C 335.617188 294.988281 332.175781 295.78125 330.585938 298.429688 C 329 300.8125 329.792969 304.253906 332.175781 305.84375 L 336.675781 308.753906 C 337.46875 309.285156 338.527344 309.550781 339.320312 309.550781 C 341.171875 309.550781 342.761719 308.753906 343.820312 306.902344 C 345.9375 304.253906 345.140625 301.078125 342.496094 299.488281 Z M 342.496094 299.488281 " fill-opacity="1" fill-rule="nonzero"></path><path fill="#000000" d="M 317.886719 284.132812 L 313.386719 281.21875 C 311.003906 279.632812 307.5625 280.425781 305.976562 283.074219 C 304.386719 285.457031 305.183594 288.898438 307.5625 290.488281 L 312.0625 293.398438 C 312.855469 293.929688 313.914062 294.191406 314.710938 294.191406 C 316.5625 294.191406 318.148438 293.398438 319.207031 291.546875 C 321.058594 288.898438 320.265625 285.722656 317.886719 284.132812 Z M 317.886719 284.132812 " fill-opacity="1" fill-rule="nonzero"></path><path fill="#000000" d="M 293.007812 268.777344 L 288.511719 265.863281 C 286.128906 264.277344 282.6875 265.070312 281.101562 267.71875 C 279.511719 270.101562 280.304688 273.542969 282.6875 275.128906 L 287.1875 278.042969 C 287.980469 278.574219 289.039062 278.835938 289.832031 278.835938 C 291.6875 278.835938 293.273438 278.042969 294.332031 276.191406 C 296.449219 273.542969 295.65625 270.363281 293.007812 268.777344 Z M 293.007812 268.777344 " fill-opacity="1" fill-rule="nonzero"></path><path fill="#000000" d="M 278.453125 198.617188 C 280.042969 196.234375 279.246094 192.792969 276.601562 191.203125 L 275.015625 190.144531 L 264.957031 195.96875 C 265.488281 196.496094 265.75 197.027344 266.546875 197.292969 L 271.042969 199.941406 C 271.839844 200.46875 272.898438 200.734375 273.691406 200.734375 C 275.808594 201.261719 277.394531 200.203125 278.453125 198.617188 Z M 278.453125 198.617188 " fill-opacity="1" fill-rule="nonzero"></path><path fill="#000000" d="M 303.328125 213.707031 C 304.917969 211.324219 304.125 207.882812 301.476562 206.292969 L 296.980469 203.644531 C 294.597656 202.058594 291.15625 202.851562 289.832031 205.5 C 288.246094 207.882812 289.039062 211.324219 291.6875 212.914062 L 296.183594 215.558594 C 296.980469 216.089844 298.039062 216.355469 298.832031 216.355469 C 300.683594 216.355469 302.269531 215.558594 303.328125 213.707031 Z M 303.328125 213.707031 " fill-opacity="1" fill-rule="nonzero"></path><path fill="#000000" d="M 328.207031 229.0625 C 329.792969 226.679688 329 223.238281 326.351562 221.648438 L 321.855469 219.003906 C 319.472656 217.414062 316.03125 218.207031 314.710938 220.855469 C 313.121094 223.238281 313.914062 226.679688 316.5625 228.269531 L 321.0625 230.917969 C 321.855469 231.445312 322.914062 231.710938 323.707031 231.710938 C 325.558594 231.445312 327.148438 230.652344 328.207031 229.0625 Z M 328.207031 229.0625 " fill-opacity="1" fill-rule="nonzero"></path><path fill="#000000" d="M 351.230469 236.742188 L 346.730469 234.09375 C 344.347656 232.503906 340.910156 233.300781 339.585938 235.945312 C 337.996094 238.328125 338.792969 241.769531 341.4375 243.359375 L 345.9375 246.007812 C 346.730469 246.535156 347.789062 246.800781 348.582031 246.800781 C 350.433594 246.800781 352.023438 246.007812 353.082031 244.152344 C 354.667969 241.507812 353.875 238.328125 351.230469 236.742188 Z M 351.230469 236.742188 " fill-opacity="1" fill-rule="nonzero"></path><path fill="#000000" d="M 304.386719 188.554688 C 305.183594 189.085938 305.976562 189.347656 307.035156 189.347656 C 308.886719 189.347656 310.738281 188.289062 311.535156 186.703125 C 312.855469 184.054688 312.0625 180.878906 309.417969 179.554688 L 304.917969 176.90625 C 302.269531 175.582031 299.097656 176.375 297.773438 179.023438 C 296.449219 181.671875 297.242188 184.847656 299.890625 186.171875 Z M 304.386719 188.554688 " fill-opacity="1" fill-rule="nonzero"></path><path fill="#000000" d="M 329.792969 202.851562 C 330.585938 203.382812 331.382812 203.644531 332.441406 203.644531 C 334.292969 203.644531 336.144531 202.585938 336.9375 201 C 338.261719 198.351562 337.46875 195.175781 334.820312 193.851562 L 330.324219 191.203125 C 327.675781 189.878906 324.5 190.671875 323.175781 193.320312 C 321.855469 195.96875 322.648438 199.144531 325.292969 200.46875 Z M 329.792969 202.851562 " fill-opacity="1" fill-rule="nonzero"></path><path fill="#000000" d="M 203.03125 256.066406 L 207.53125 258.980469 C 208.324219 259.511719 209.382812 259.773438 210.441406 259.773438 C 212.296875 259.773438 213.882812 258.980469 214.941406 257.390625 C 216.527344 255.007812 215.734375 251.566406 213.355469 249.980469 L 208.855469 247.066406 C 206.472656 245.476562 203.03125 246.273438 201.445312 248.65625 C 199.855469 251.300781 200.652344 254.746094 203.03125 256.066406 Z M 203.03125 256.066406 " fill-opacity="1" fill-rule="nonzero"></path><path fill="#000000" d="M 227.644531 271.6875 L 232.144531 274.601562 C 232.9375 275.128906 233.996094 275.394531 235.054688 275.394531 C 236.90625 275.394531 238.492188 274.601562 239.550781 273.011719 C 241.140625 270.628906 240.347656 267.1875 237.964844 265.597656 L 233.464844 262.6875 C 231.085938 261.097656 227.644531 261.894531 226.054688 264.277344 C 224.46875 266.660156 225.261719 270.101562 227.644531 271.6875 Z M 227.644531 271.6875 " fill-opacity="1" fill-rule="nonzero"></path><path fill="#000000" d="M 190.066406 241.769531 C 190.59375 240.976562 190.859375 240.183594 190.859375 239.386719 L 183.449219 243.890625 C 184.242188 244.152344 185.039062 244.417969 185.832031 244.417969 C 187.417969 244.417969 189.007812 243.625 190.066406 241.769531 Z M 190.066406 241.769531 " fill-opacity="1" fill-rule="nonzero"></path><path fill="#000000" d="M 336.675781 327.023438 L 332.175781 324.109375 C 329.792969 322.523438 326.351562 323.316406 324.765625 325.699219 C 323.175781 328.082031 323.972656 331.523438 326.351562 333.113281 L 330.851562 336.023438 C 331.644531 336.554688 332.703125 336.820312 333.761719 336.820312 C 335.617188 336.820312 337.203125 336.023438 338.261719 334.4375 C 340.113281 331.789062 339.320312 328.613281 336.675781 327.023438 Z M 336.675781 327.023438 " fill-opacity="1" fill-rule="nonzero"></path><path fill="#000000" d="M 306.503906 320.667969 C 307.300781 321.199219 308.359375 321.464844 309.417969 321.464844 C 311.269531 321.464844 312.855469 320.667969 313.914062 319.082031 C 315.503906 316.699219 314.710938 313.253906 312.328125 311.667969 L 307.828125 308.753906 C 305.445312 307.167969 302.007812 307.960938 300.417969 310.34375 C 298.832031 312.726562 299.625 316.167969 302.007812 317.757812 Z M 306.503906 320.667969 " fill-opacity="1" fill-rule="nonzero"></path><path fill="#000000" d="M 277.132812 302.402344 L 281.628906 305.3125 C 282.421875 305.84375 283.480469 306.105469 284.539062 306.105469 C 286.394531 306.105469 287.980469 305.3125 289.039062 303.722656 C 290.628906 301.339844 289.832031 297.898438 287.453125 296.3125 L 282.953125 293.398438 C 280.570312 291.808594 277.132812 292.605469 275.542969 294.988281 C 273.957031 297.636719 274.75 300.8125 277.132812 302.402344 Z M 277.132812 302.402344 " fill-opacity="1" fill-rule="nonzero"></path><path fill="#000000" d="M 252.519531 287.042969 L 257.019531 289.957031 C 257.8125 290.488281 258.871094 290.75 259.929688 290.75 C 261.78125 290.75 263.371094 289.957031 264.429688 288.367188 C 266.015625 285.984375 265.222656 282.542969 262.839844 280.957031 L 258.339844 278.042969 C 255.960938 276.453125 252.519531 277.25 250.933594 279.632812 C 249.34375 282.277344 250.136719 285.457031 252.519531 287.042969 Z M 252.519531 287.042969 " fill-opacity="1" fill-rule="nonzero"></path><path fill="#000000" d="M 236.378906 212.914062 L 238.757812 214.238281 C 239.550781 214.765625 240.609375 215.03125 241.40625 215.03125 C 243.257812 215.03125 244.84375 214.238281 245.902344 212.382812 C 246.960938 210.792969 246.960938 208.675781 245.902344 207.089844 Z M 236.378906 212.914062 " fill-opacity="1" fill-rule="nonzero"></path><g clip-path="url(#aa1275f8cb)"><path fill="#000000" d="M 284.011719 170.816406 C 289.570312 145.136719 271.042969 131.367188 268.132812 129.515625 L 233.203125 100.65625 L 134.226562 157.84375 C 131.582031 159.433594 128.40625 158.371094 127.082031 155.988281 C 125.496094 153.34375 126.554688 150.164062 128.933594 148.839844 L 229.496094 90.59375 L 229.496094 60.941406 C 230.820312 33.144531 202.238281 19.109375 201.179688 18.582031 C 199.59375 17.789062 197.738281 17.789062 196.152344 18.847656 L 23.082031 119.1875 C 21.226562 120.246094 20.167969 122.367188 20.433594 124.21875 C 20.433594 124.75 20.699219 125.011719 20.699219 125.542969 C 20.699219 126.074219 20.433594 126.867188 20.433594 127.394531 L 20.433594 216.355469 C 20.433594 218.207031 21.492188 220.0625 23.082031 220.855469 L 109.085938 271.425781 C 109.085938 271.425781 109.085938 271.425781 109.351562 271.425781 C 109.617188 271.6875 109.882812 271.6875 110.144531 271.6875 C 110.144531 271.6875 110.410156 271.6875 110.410156 271.6875 C 110.410156 271.6875 110.410156 271.6875 110.675781 271.6875 C 110.941406 271.6875 111.46875 271.6875 111.734375 271.6875 C 112.261719 271.6875 112.527344 271.6875 113.054688 271.425781 C 113.054688 271.425781 113.320312 271.425781 113.320312 271.425781 C 113.851562 271.425781 114.113281 271.160156 114.378906 270.894531 L 281.363281 173.730469 C 282.953125 173.730469 283.746094 172.40625 284.011719 170.816406 Z M 31.019531 213.441406 L 31.019531 132.425781 C 37.898438 136.925781 47.691406 146.457031 46.898438 163.667969 L 46.898438 203.382812 C 46.898438 205.234375 47.957031 207.089844 49.542969 207.882812 L 89.769531 231.976562 C 90.035156 231.976562 90.035156 232.238281 90.296875 232.238281 C 91.089844 232.503906 107.234375 240.183594 107.5 258.1875 Z M 113.585938 173.464844 L 91.089844 188.027344 C 90.296875 188.554688 89.238281 188.820312 88.179688 188.820312 C 86.328125 188.820312 84.742188 188.027344 83.683594 186.4375 C 82.09375 184.054688 82.886719 180.613281 85.269531 179.023438 L 107.765625 164.460938 C 110.144531 162.875 113.585938 163.667969 115.171875 166.050781 C 116.761719 168.699219 115.96875 171.875 113.585938 173.464844 Z M 113.585938 173.464844 " fill-opacity="1" fill-rule="nonzero"></path></g></svg>