<svg xmlns="http://www.w3.org/2000/svg" xmlns:xlink="http://www.w3.org/1999/xlink" width="500" viewBox="0 0 375 374.999991" height="500" preserveAspectRatio="xMidYMid meet"><defs><clipPath id="81186026ee"><path d="M 46 82.851562 L 329 82.851562 L 329 221 L 46 221 Z M 46 82.851562 " clip-rule="nonzero"></path></clipPath><clipPath id="a70d0b11db"><path d="M 33 82.851562 L 340 82.851562 L 340 279 L 33 279 Z M 33 82.851562 " clip-rule="nonzero"></path></clipPath><clipPath id="a93e618a21"><path d="M 21.390625 288 L 353.640625 288 L 353.640625 292.101562 L 21.390625 292.101562 Z M 21.390625 288 " clip-rule="nonzero"></path></clipPath><clipPath id="016f007255"><path d="M 21.390625 219 L 353.640625 219 L 353.640625 224 L 21.390625 224 Z M 21.390625 219 " clip-rule="nonzero"></path></clipPath></defs><g clip-path="url(#81186026ee)"><path fill="#231f20" d="M 77.132812 219.265625 C 78.003906 218.046875 77.320312 217.089844 77.492188 213.082031 C 77.652344 209.453125 78.382812 206.550781 78.949219 204.714844 C 80.148438 197.886719 82.40625 188.703125 86.953125 178.523438 C 93.328125 164.234375 101.304688 154.46875 105.871094 149.421875 C 112 142.644531 121.742188 133.574219 135.710938 126.136719 C 140.667969 123.496094 154.351562 116.707031 173.558594 114.132812 C 194.824219 111.277344 211.230469 115.15625 215.769531 116.316406 C 221.171875 117.699219 237.765625 122.390625 255.070312 135.601562 C 260.679688 139.882812 273.265625 149.683594 283.085938 166.886719 C 290.085938 179.144531 292.949219 190.273438 294.730469 197.441406 C 296.949219 206.359375 297.914062 214.09375 298.371094 219.855469 C 305.082031 220.015625 311.792969 220.179688 318.503906 220.339844 C 315.882812 217.992188 314.71875 214.660156 315.46875 211.625 C 315.566406 211.222656 316.464844 207.851562 319.109375 206.894531 C 322.117188 205.800781 326.71875 208.1875 328.929688 213.441406 L 327.617188 197.0625 C 323.136719 195.03125 319.84375 192.683594 317.648438 190.886719 C 314.917969 188.65625 313.289062 186.773438 311.828125 185.070312 C 308.75 181.484375 307.222656 179.648438 307.460938 177.429688 C 307.691406 175.320312 309.300781 173.476562 311.101562 172.699219 C 314.152344 171.390625 318.335938 172.890625 320.5625 176.699219 C 318.746094 171.242188 316.921875 165.789062 315.105469 160.332031 C 309.835938 160.34375 305.828125 159.09375 303.460938 158.148438 C 301.074219 157.195312 297.339844 155.652344 294.363281 151.960938 C 292.953125 150.21875 291.191406 148.027344 291.816406 145.773438 C 292.519531 143.246094 295.882812 141.925781 298.363281 141.773438 C 302.273438 141.523438 304.753906 144.117188 305.277344 143.589844 C 305.832031 143.03125 303.675781 139.507812 294.363281 128.675781 C 285.769531 131.023438 279.417969 129.910156 276.167969 129.039062 C 271.210938 127.710938 269.636719 125.914062 268.894531 124.675781 C 267.613281 122.5625 266.976562 119.164062 268.53125 117.402344 C 271.023438 114.566406 277.527344 117.796875 278.351562 116.308594 C 278.949219 115.246094 276.414062 112.109375 265.984375 104.304688 C 263.710938 106.164062 259.46875 109.023438 253.613281 109.761719 C 251.113281 110.078125 247.203125 110.511719 243.421875 108.308594 C 242.828125 107.960938 238.261719 105.222656 238.691406 102.488281 C 239.253906 98.902344 247.800781 98.871094 248.148438 96.304688 C 248.390625 94.535156 244.683594 91.832031 231.777344 87.570312 C 230.242188 90.0625 226.851562 94.660156 220.863281 97.027344 C 218.832031 97.832031 211.398438 100.761719 207.761719 97.027344 C 205.730469 94.9375 205.195312 91.082031 206.671875 88.664062 C 208.5 85.652344 212.878906 85.78125 212.859375 85.023438 C 212.839844 84.351562 209.371094 83.542969 195.03125 82.839844 C 193.109375 86.363281 189.636719 91.304688 183.75 94.480469 C 181.328125 95.789062 178.519531 97.25 175.382812 96.296875 C 173.289062 95.667969 170.78125 93.882812 170.285156 91.203125 C 169.683594 87.964844 172.152344 84.164062 176.476562 82.839844 C 170.777344 83.441406 165.070312 84.050781 159.371094 84.65625 C 157.429688 89.976562 154.988281 93.835938 153.183594 96.296875 C 150.507812 99.949219 148.449219 102.683594 144.816406 103.570312 C 144.449219 103.664062 139.675781 104.769531 137.90625 102.476562 C 135.285156 99.085938 141.859375 91.691406 140.089844 89.742188 C 138.964844 88.503906 134.625 89.65625 122.988281 97.015625 C 123.390625 98.976562 123.988281 103.300781 122.257812 108.292969 C 120.648438 112.9375 117.894531 115.621094 116.070312 117.390625 C 112.9375 120.433594 111.371094 120.472656 110.832031 120.453125 C 108.929688 120.378906 107.125 118.996094 106.246094 117.390625 C 103.753906 112.824219 108.835938 106.699219 107.703125 105.746094 C 106.929688 105.097656 103.519531 107.054688 92.417969 117.75 C 93.71875 120.921875 94.105469 123.636719 94.234375 125.390625 C 94.339844 126.898438 94.6875 133.601562 90.59375 139.582031 C 89.441406 141.269531 88.238281 142.953125 86.230469 143.21875 C 84.292969 143.476562 82.058594 142.355469 81.132812 140.671875 C 80.878906 140.210938 80.683594 139.636719 80.402344 133.761719 C 80.335938 132.335938 80.335938 132.085938 80.15625 131.988281 C 79.449219 131.613281 76.882812 133.992188 68.394531 146.851562 C 69.734375 148.601562 71.910156 151.953125 72.757812 156.671875 C 73.410156 160.265625 73.007812 163.058594 72.757812 164.675781 C 72.191406 168.402344 71.835938 170.734375 69.851562 172.316406 C 67.777344 173.957031 64.300781 174.507812 62.574219 173.046875 C 62.046875 172.597656 61.628906 171.921875 60.757812 165.40625 C 60.316406 162.101562 60.316406 161.476562 60.027344 161.40625 C 59.335938 161.230469 57.507812 164.445312 52.386719 179.957031 C 53.988281 181.503906 56.179688 183.90625 58.203125 187.230469 C 59.734375 189.742188 61.269531 192.316406 61.84375 195.960938 C 62.246094 198.523438 63.039062 203.527344 60.027344 205.78125 C 58.246094 207.113281 55.457031 207.230469 53.476562 206.144531 C 49.898438 204.179688 50.011719 198.851562 49.113281 198.871094 C 48.402344 198.882812 47.492188 202.195312 46.566406 216.332031 C 48.019531 217.421875 49.476562 218.515625 50.929688 219.601562 C 53.238281 219.601562 57.078125 219.65625 61.84375 219.964844 C 71.011719 220.566406 75.433594 221.597656 77.132812 219.234375 Z M 77.132812 219.265625 " fill-opacity="1" fill-rule="nonzero"></path></g><path fill="#231f20" d="M 130.824219 220.566406 C 131.273438 219.9375 130.917969 219.449219 131.011719 217.382812 C 131.09375 215.511719 131.46875 214.023438 131.765625 213.082031 C 132.378906 209.566406 133.546875 204.84375 135.878906 199.601562 C 139.164062 192.25 143.269531 187.222656 145.613281 184.628906 C 148.765625 181.144531 153.78125 176.472656 160.96875 172.652344 C 163.515625 171.289062 170.554688 167.796875 180.445312 166.472656 C 191.386719 165.003906 199.832031 167 202.164062 167.597656 C 204.949219 168.308594 213.480469 170.722656 222.386719 177.515625 C 225.273438 179.722656 231.75 184.761719 236.804688 193.617188 C 240.367188 199.855469 241.847656 205.578125 242.800781 209.339844 C 243.894531 213.683594 244.410156 217.4375 244.671875 220.199219 L 254.40625 220.386719 C 254.265625 220.21875 252.964844 218.644531 253.464844 216.640625 C 253.511719 216.464844 253.984375 214.695312 255.335938 214.207031 C 256.886719 213.644531 259.253906 214.871094 260.390625 217.578125 L 259.714844 209.144531 C 257.410156 208.101562 255.710938 206.894531 254.585938 205.96875 C 253.179688 204.816406 252.339844 203.851562 251.589844 202.972656 C 250.007812 201.128906 249.214844 200.183594 249.34375 199.039062 C 249.464844 197.953125 250.289062 197 251.214844 196.605469 C 252.78125 195.933594 254.933594 196.707031 256.082031 198.664062 C 255.144531 195.855469 254.210938 193.046875 253.273438 190.238281 C 250.5625 190.238281 248.5 189.601562 247.277344 189.113281 C 246.050781 188.621094 244.128906 187.832031 242.597656 185.929688 C 241.875 185.03125 240.964844 183.90625 241.285156 182.746094 C 241.648438 181.445312 243.382812 180.769531 244.65625 180.6875 C 246.667969 180.558594 247.941406 181.894531 248.21875 181.625 C 248.5 181.335938 247.394531 179.527344 242.597656 173.953125 C 238.175781 175.15625 234.910156 174.589844 233.238281 174.140625 C 230.691406 173.457031 229.882812 172.53125 229.492188 171.894531 C 228.835938 170.808594 228.507812 169.058594 229.304688 168.148438 C 230.585938 166.6875 233.9375 168.347656 234.359375 167.582031 C 234.667969 167.035156 233.359375 165.417969 227.992188 161.40625 C 226.824219 162.363281 224.636719 163.832031 221.621094 164.210938 C 220.335938 164.375 218.324219 164.601562 216.378906 163.460938 C 216.070312 163.28125 213.722656 161.875 213.945312 160.464844 C 214.234375 158.621094 218.632812 158.601562 218.8125 157.28125 C 218.941406 156.371094 217.027344 154.984375 210.386719 152.792969 C 209.59375 154.078125 207.851562 156.445312 204.765625 157.65625 C 203.722656 158.074219 199.898438 159.582031 198.027344 157.65625 C 196.984375 156.585938 196.707031 154.59375 197.464844 153.355469 C 198.410156 151.804688 200.65625 151.875 200.652344 151.484375 C 200.644531 151.136719 198.855469 150.71875 191.472656 150.359375 C 190.488281 152.175781 188.695312 154.714844 185.667969 156.351562 C 184.417969 157.019531 182.976562 157.773438 181.363281 157.289062 C 180.28125 156.960938 178.996094 156.050781 178.742188 154.667969 C 178.433594 153.007812 179.699219 151.050781 181.925781 150.367188 C 178.988281 150.679688 176.058594 150.988281 173.121094 151.304688 C 172.125 154.046875 170.863281 156.027344 169.9375 157.296875 C 168.5625 159.179688 167.503906 160.578125 165.632812 161.042969 C 165.441406 161.089844 162.992188 161.660156 162.074219 160.480469 C 160.726562 158.738281 164.105469 154.929688 163.199219 153.925781 C 162.625 153.289062 160.382812 153.878906 154.398438 157.671875 C 154.605469 158.683594 154.914062 160.910156 154.023438 163.476562 C 153.191406 165.867188 151.777344 167.242188 150.835938 168.152344 C 149.230469 169.722656 148.417969 169.742188 148.144531 169.730469 C 147.164062 169.6875 146.230469 168.984375 145.78125 168.152344 C 144.496094 165.808594 147.117188 162.652344 146.535156 162.160156 C 146.136719 161.828125 144.382812 162.832031 138.667969 168.339844 C 139.339844 169.96875 139.542969 171.371094 139.609375 172.277344 C 139.660156 173.054688 139.84375 176.503906 137.738281 179.574219 C 137.140625 180.4375 136.53125 181.3125 135.492188 181.445312 C 134.5 181.570312 133.347656 181.003906 132.871094 180.132812 C 132.742188 179.894531 132.640625 179.59375 132.496094 176.570312 C 132.460938 175.839844 132.460938 175.707031 132.367188 175.660156 C 132.003906 175.464844 130.683594 176.691406 126.320312 183.316406 C 127.011719 184.210938 128.128906 185.941406 128.566406 188.367188 C 128.902344 190.21875 128.695312 191.652344 128.566406 192.484375 C 128.269531 194.402344 128.089844 195.601562 127.070312 196.417969 C 126.003906 197.261719 124.214844 197.542969 123.324219 196.792969 C 123.054688 196.566406 122.835938 196.210938 122.386719 192.859375 C 122.15625 191.164062 122.15625 190.835938 122.007812 190.800781 C 121.652344 190.714844 120.714844 192.371094 118.074219 200.34375 C 118.898438 201.144531 120.023438 202.375 121.070312 204.09375 C 121.855469 205.386719 122.644531 206.710938 122.941406 208.582031 C 123.148438 209.894531 123.550781 212.476562 122.003906 213.636719 C 121.085938 214.328125 119.648438 214.378906 118.628906 213.824219 C 116.785156 212.8125 116.847656 210.070312 116.382812 210.078125 C 116.023438 210.078125 115.554688 211.785156 115.070312 219.066406 C 115.820312 219.628906 116.566406 220.191406 117.316406 220.746094 C 118.503906 220.746094 120.480469 220.773438 122.933594 220.933594 C 127.648438 221.242188 129.925781 221.78125 130.796875 220.558594 Z M 130.824219 220.566406 " fill-opacity="1" fill-rule="nonzero"></path><path fill="#231f20" d="M 151.675781 220.265625 C 151.957031 219.871094 151.734375 219.5625 151.789062 218.273438 C 151.84375 217.109375 152.078125 216.167969 152.257812 215.582031 C 152.648438 213.382812 153.371094 210.425781 154.832031 207.148438 C 156.886719 202.550781 159.460938 199.402344 160.925781 197.777344 C 162.898438 195.59375 166.035156 192.679688 170.535156 190.277344 C 172.128906 189.425781 176.535156 187.242188 182.722656 186.410156 C 189.566406 185.492188 194.851562 186.738281 196.3125 187.113281 C 198.050781 187.558594 203.390625 189.070312 208.96875 193.320312 C 210.78125 194.703125 214.828125 197.859375 217.996094 203.394531 C 220.226562 207.300781 221.152344 210.882812 221.742188 213.234375 C 222.425781 215.957031 222.746094 218.300781 222.914062 220.03125 L 229.007812 220.144531 C 228.921875 220.039062 228.105469 219.050781 228.425781 217.796875 C 228.453125 217.691406 228.746094 216.585938 229.597656 216.277344 C 230.570312 215.929688 232.046875 216.691406 232.765625 218.386719 C 232.625 216.632812 232.480469 214.871094 232.339844 213.113281 C 230.898438 212.457031 229.839844 211.707031 229.128906 211.121094 C 228.25 210.40625 227.730469 209.796875 227.253906 209.246094 C 226.261719 208.09375 225.769531 207.496094 225.84375 206.785156 C 225.917969 206.109375 226.433594 205.511719 227.019531 205.265625 C 227.996094 204.84375 229.34375 205.324219 230.0625 206.550781 C 229.480469 204.796875 228.890625 203.039062 228.304688 201.285156 C 226.609375 201.285156 225.316406 200.882812 224.558594 200.578125 C 223.785156 200.273438 222.585938 199.777344 221.628906 198.589844 C 221.171875 198.027344 220.609375 197.324219 220.808594 196.597656 C 221.039062 195.789062 222.125 195.359375 222.921875 195.3125 C 224.183594 195.230469 224.980469 196.070312 225.148438 195.894531 C 225.328125 195.714844 224.632812 194.582031 221.636719 191.089844 C 218.867188 191.847656 216.820312 191.484375 215.773438 191.203125 C 214.179688 190.773438 213.675781 190.199219 213.429688 189.796875 C 213.019531 189.113281 212.8125 188.019531 213.316406 187.449219 C 214.121094 186.539062 216.210938 187.578125 216.480469 187.101562 C 216.671875 186.757812 215.855469 185.746094 212.496094 183.234375 C 211.765625 183.832031 210.398438 184.753906 208.515625 184.988281 C 207.710938 185.089844 206.449219 185.230469 205.234375 184.519531 C 205.042969 184.40625 203.574219 183.527344 203.714844 182.644531 C 203.894531 181.492188 206.652344 181.476562 206.757812 180.652344 C 206.839844 180.082031 205.644531 179.210938 201.488281 177.84375 C 200.992188 178.648438 199.898438 180.132812 197.976562 180.886719 C 197.320312 181.148438 194.925781 182.089844 193.757812 180.886719 C 193.101562 180.21875 192.933594 178.972656 193.410156 178.195312 C 194 177.222656 195.40625 177.269531 195.402344 177.019531 C 195.402344 176.804688 194.273438 176.546875 189.664062 176.316406 C 189.046875 177.449219 187.925781 179.046875 186.027344 180.0625 C 185.25 180.484375 184.34375 180.957031 183.332031 180.648438 C 182.664062 180.445312 181.851562 179.871094 181.691406 179.003906 C 181.496094 177.964844 182.289062 176.738281 183.683594 176.308594 C 181.84375 176.503906 180.007812 176.699219 178.175781 176.894531 C 177.554688 178.609375 176.761719 179.847656 176.1875 180.640625 C 175.328125 181.820312 174.664062 182.699219 173.492188 182.984375 C 173.371094 183.011719 171.835938 183.375 171.265625 182.636719 C 170.421875 181.546875 172.539062 179.164062 171.96875 178.535156 C 171.609375 178.132812 170.207031 178.507812 166.464844 180.882812 C 166.59375 181.511719 166.789062 182.90625 166.230469 184.515625 C 165.714844 186.007812 164.824219 186.875 164.238281 187.441406 C 163.234375 188.421875 162.722656 188.433594 162.550781 188.429688 C 161.941406 188.402344 161.355469 187.960938 161.074219 187.441406 C 160.269531 185.976562 161.90625 184 161.542969 183.695312 C 161.296875 183.488281 160.195312 184.117188 156.625 187.5625 C 157.046875 188.582031 157.167969 189.460938 157.207031 190.023438 C 157.242188 190.511719 157.355469 192.671875 156.035156 194.59375 C 155.65625 195.136719 155.277344 195.679688 154.625 195.769531 C 154.003906 195.847656 153.285156 195.484375 152.984375 194.949219 C 152.902344 194.800781 152.835938 194.613281 152.75 192.726562 C 152.726562 192.269531 152.726562 192.183594 152.667969 192.15625 C 152.441406 192.035156 151.617188 192.796875 148.878906 196.941406 C 149.308594 197.503906 150.011719 198.582031 150.289062 200.105469 C 150.496094 201.261719 150.367188 202.160156 150.289062 202.679688 C 150.105469 203.878906 149.992188 204.628906 149.347656 205.136719 C 148.6875 205.667969 147.558594 205.839844 147.003906 205.371094 C 146.835938 205.230469 146.703125 205.011719 146.417969 202.914062 C 146.277344 201.847656 146.277344 201.644531 146.183594 201.625 C 145.964844 201.570312 145.375 202.605469 143.722656 207.597656 C 144.242188 208.09375 144.945312 208.871094 145.601562 209.941406 C 146.097656 210.753906 146.585938 211.585938 146.773438 212.75 C 146.902344 213.574219 147.15625 215.191406 146.191406 215.914062 C 145.613281 216.34375 144.714844 216.382812 144.078125 216.027344 C 142.925781 215.398438 142.960938 213.683594 142.671875 213.683594 C 142.445312 213.683594 142.148438 214.753906 141.855469 219.304688 C 142.324219 219.65625 142.792969 220.011719 143.261719 220.359375 C 144.007812 220.359375 145.238281 220.371094 146.773438 220.472656 C 149.726562 220.667969 151.152344 221.003906 151.695312 220.238281 Z M 151.675781 220.265625 " fill-opacity="1" fill-rule="nonzero"></path><path fill="#231f20" d="M 169.527344 221.015625 C 169.671875 220.816406 169.5625 220.652344 169.589844 219.996094 C 169.617188 219.402344 169.738281 218.917969 169.832031 218.617188 C 170.023438 217.492188 170.402344 215.976562 171.152344 214.300781 C 172.203125 211.949219 173.519531 210.339844 174.269531 209.507812 C 175.28125 208.386719 176.882812 206.902344 179.183594 205.675781 C 180 205.238281 182.253906 204.117188 185.417969 203.695312 C 188.925781 203.226562 191.625 203.863281 192.371094 204.058594 C 193.261719 204.285156 195.992188 205.058594 198.847656 207.234375 C 199.773438 207.9375 201.84375 209.554688 203.460938 212.390625 C 204.597656 214.386719 205.074219 216.21875 205.375 217.421875 C 205.726562 218.816406 205.894531 220.015625 205.972656 220.902344 C 207.011719 220.921875 208.050781 220.941406 209.089844 220.960938 C 209.042969 220.910156 208.628906 220.40625 208.789062 219.761719 C 208.804688 219.707031 208.957031 219.140625 209.386719 218.984375 C 209.882812 218.804688 210.640625 219.199219 211 220.0625 L 210.789062 217.363281 C 210.050781 217.027344 209.507812 216.640625 209.144531 216.34375 C 208.695312 215.976562 208.425781 215.667969 208.1875 215.386719 C 207.675781 214.796875 207.429688 214.496094 207.46875 214.125 C 207.507812 213.777344 207.769531 213.476562 208.066406 213.347656 C 208.566406 213.132812 209.257812 213.382812 209.621094 214.003906 C 209.320312 213.105469 209.023438 212.207031 208.722656 211.3125 C 207.859375 211.3125 207.195312 211.109375 206.804688 210.949219 C 206.410156 210.792969 205.800781 210.539062 205.304688 209.929688 C 205.070312 209.640625 204.78125 209.28125 204.878906 208.910156 C 204.996094 208.496094 205.550781 208.273438 205.960938 208.253906 C 206.605469 208.214844 207.011719 208.644531 207.101562 208.554688 C 207.195312 208.460938 206.839844 207.886719 205.304688 206.097656 C 203.886719 206.484375 202.84375 206.296875 202.304688 206.15625 C 201.488281 205.933594 201.234375 205.640625 201.105469 205.4375 C 200.898438 205.089844 200.792969 204.535156 201.046875 204.238281 C 201.453125 203.769531 202.527344 204.304688 202.660156 204.058594 C 202.761719 203.882812 202.339844 203.367188 200.625 202.082031 C 200.25 202.390625 199.550781 202.859375 198.585938 202.980469 C 198.175781 203.03125 197.53125 203.101562 196.910156 202.738281 C 196.808594 202.679688 196.058594 202.230469 196.132812 201.78125 C 196.226562 201.191406 197.632812 201.183594 197.6875 200.761719 C 197.726562 200.464844 197.117188 200.023438 194.992188 199.320312 C 194.738281 199.730469 194.179688 200.484375 193.195312 200.875 C 192.859375 201.007812 191.632812 201.492188 191.035156 200.875 C 190.703125 200.53125 190.613281 199.894531 190.855469 199.496094 C 191.15625 199 191.875 199.019531 191.875 198.898438 C 191.875 198.789062 191.296875 198.65625 188.9375 198.535156 C 188.621094 199.117188 188.046875 199.929688 187.082031 200.453125 C 186.683594 200.667969 186.222656 200.910156 185.699219 200.753906 C 185.359375 200.648438 184.941406 200.359375 184.863281 199.917969 C 184.761719 199.378906 185.171875 198.757812 185.882812 198.535156 C 184.941406 198.636719 184.003906 198.738281 183.066406 198.835938 C 182.742188 199.714844 182.339844 200.351562 182.046875 200.753906 C 181.605469 201.359375 181.269531 201.804688 180.664062 201.953125 C 180.605469 201.96875 179.820312 202.148438 179.523438 201.773438 C 179.097656 201.214844 180.175781 199.996094 179.886719 199.675781 C 179.699219 199.46875 178.988281 199.660156 177.070312 200.875 C 177.136719 201.195312 177.238281 201.914062 176.949219 202.730469 C 176.683594 203.496094 176.234375 203.9375 175.933594 204.234375 C 175.414062 204.734375 175.152344 204.742188 175.066406 204.734375 C 174.75 204.722656 174.457031 204.496094 174.308594 204.234375 C 173.902344 203.480469 174.738281 202.46875 174.550781 202.316406 C 174.421875 202.207031 173.859375 202.53125 172.035156 204.292969 C 172.25 204.816406 172.316406 205.265625 172.339844 205.554688 C 172.359375 205.800781 172.410156 206.90625 171.742188 207.890625 C 171.554688 208.167969 171.351562 208.449219 171.023438 208.488281 C 170.703125 208.527344 170.339844 208.347656 170.1875 208.066406 C 170.144531 207.992188 170.113281 207.890625 170.066406 206.925781 C 170.050781 206.691406 170.050781 206.652344 170.023438 206.632812 C 169.910156 206.570312 169.488281 206.960938 168.085938 209.078125 C 168.308594 209.367188 168.664062 209.917969 168.804688 210.695312 C 168.914062 211.285156 168.84375 211.746094 168.804688 212.015625 C 168.710938 212.632812 168.652344 213.011719 168.324219 213.273438 C 167.980469 213.542969 167.410156 213.636719 167.121094 213.394531 C 167.035156 213.320312 166.96875 213.207031 166.820312 212.136719 C 166.746094 211.59375 166.746094 211.484375 166.699219 211.476562 C 166.585938 211.453125 166.285156 211.980469 165.441406 214.535156 C 165.699219 214.789062 166.0625 215.183594 166.398438 215.734375 C 166.652344 216.148438 166.902344 216.570312 166.996094 217.175781 C 167.0625 217.597656 167.1875 218.421875 166.691406 218.789062 C 166.398438 219.011719 165.941406 219.03125 165.613281 218.851562 C 165.023438 218.527344 165.042969 217.652344 164.898438 217.652344 C 164.78125 217.652344 164.628906 218.199219 164.472656 220.527344 C 164.714844 220.707031 164.957031 220.886719 165.191406 221.0625 C 165.574219 221.0625 166.203125 221.070312 166.988281 221.121094 C 168.496094 221.222656 169.226562 221.390625 169.503906 221.003906 Z M 169.527344 221.015625 " fill-opacity="1" fill-rule="nonzero"></path><g clip-path="url(#a70d0b11db)"><path stroke-linecap="butt" transform="matrix(0.670427, 0, 0, 0.670243, 21.753707, 82.851806)" fill="none" stroke-linejoin="miter" d="M 103.95108 204.397188 C 104.207446 191.202353 106.497265 168.618437 119.152447 144.699885 C 139.568542 106.07119 173.350653 89.758317 185.91261 83.912726 C 215.761826 70.018518 241.817984 69.767909 247.778504 69.802878 C 289.350661 70.018518 318.500695 88.930726 327.56092 95.312504 C 336.137544 101.350423 364.332031 122.640499 378.57785 162.067644 C 384.748126 179.161483 386.367896 194.267937 386.717486 204.397188 " stroke="#231f20" stroke-width="6.15" stroke-opacity="1" stroke-miterlimit="10"></path></g><path stroke-linecap="butt" transform="matrix(0.670427, 0, 0, 0.670243, 21.753707, 82.851806)" fill="none" stroke-linejoin="miter" d="M 124.90904 206.611868 C 125.002264 198.120316 126.080169 185.881291 130.758857 172.097817 C 141.677739 139.949977 164.447744 122.302468 172.698083 116.089706 C 180.30168 110.360677 208.111617 90.049723 249.031204 90.45769 C 261.441673 90.591737 289.880873 92.771449 317.877259 112.470451 C 325.288581 117.680779 349.608438 136.050974 361.908202 170.081292 C 367.23946 184.820575 368.631996 197.869708 368.940801 206.611868 " stroke="#231f20" stroke-width="4.61" stroke-opacity="1" stroke-miterlimit="10"></path><g clip-path="url(#a93e618a21)"><path stroke-linecap="round" transform="matrix(0.670427, 0, 0, 0.670243, 21.753707, 82.851806)" fill="none" stroke-linejoin="miter" d="M 3.00095 309.151588 L 491.472328 309.151588 " stroke="#231f20" stroke-width="6" stroke-opacity="1" stroke-miterlimit="10"></path></g><g clip-path="url(#016f007255)"><path stroke-linecap="round" transform="matrix(0.670427, 0, 0, 0.670243, 21.753707, 82.851806)" fill="none" stroke-linejoin="miter" d="M 3.00095 206.611868 L 491.472328 206.611868 " stroke="#231f20" stroke-width="6" stroke-opacity="1" stroke-miterlimit="10"></path></g></svg>